<?xml version="1.0" encoding="UTF-8"?>
<svg xmlns="http://www.w3.org/2000/svg" xmlns:svg="http://www.w3.org/2000/svg" xmlns:sodipodi="http://sodipodi.sourceforge.net/DTD/sodipodi-0.dtd" xmlns:rdf="http://www.w3.org/1999/02/22-rdf-syntax-ns#" xmlns:inkscape="http://www.inkscape.org/namespaces/inkscape" xmlns:dc="http://purl.org/dc/elements/1.1/" xmlns:cc="http://creativecommons.org/ns#" version="1.1" viewBox="0 0 347 316">
  <defs>
    <style>
      .cls-1 {
        stroke-width: 23.8px;
      }

      .cls-1, .cls-2, .cls-3, .cls-4 {
        fill: none;
      }

      .cls-1, .cls-2, .cls-3, .cls-4, .cls-5 {
        stroke: #3d4ba0;
      }

      .cls-1, .cls-2, .cls-3, .cls-5 {
        stroke-miterlimit: 39;
      }

      .cls-2 {
        stroke-width: 23.7px;
      }

      .cls-3 {
        stroke-width: 23.6px;
      }

      .cls-4 {
        stroke-miterlimit: 15.1;
        stroke-width: 1px;
      }

      .cls-5 {
        fill: #3d4ba0;
        stroke-width: 1.4px;
      }
    </style>
  </defs>
  <!-- Generator: Adobe Illustrator 28.7.1, SVG Export Plug-In . SVG Version: 1.2.0 Build 142)  -->
  <g>
    <g id="svg8">
      <g id="_x3C_defs">
        <inkscape:path-effect id="path-effect1126" effect="spiro" is_visible="true" lpeversion="1"/>
        <inkscape:path-effect id="path-effect1107" effect="spiro" is_visible="true" lpeversion="1"/>
        <inkscape:path-effect id="path-effect384" effect="spiro" is_visible="true" lpeversion="1"/>
        <inkscape:path-effect id="path-effect364" effect="spiro" is_visible="true" lpeversion="1"/>
        <inkscape:path-effect id="path-effect345" effect="spiro" is_visible="true" lpeversion="1"/>
        <inkscape:path-effect id="path-effect343" effect="spiro" is_visible="true" lpeversion="1"/>
        <inkscape:path-effect id="path-effect341" effect="spiro" is_visible="true" lpeversion="1"/>
        <inkscape:path-effect id="path-effect339" effect="spiro" is_visible="true" lpeversion="1"/>
        <inkscape:path-effect id="path-effect337" effect="spiro" is_visible="true" lpeversion="1"/>
        <inkscape:path-effect id="path-effect335" effect="spiro" is_visible="true" lpeversion="1"/>
        <inkscape:path-effect id="path-effect879" effect="spiro" is_visible="true" lpeversion="1"/>
      </g>
      <sodipodi:namedview id="base" bordercolor="#666666" borderopacity="1.0" inkscape:current-layer="layer1" inkscape:cx="18.25413" inkscape:cy="94.531382" inkscape:document-rotation="0" inkscape:document-units="mm" inkscape:pageopacity="0" inkscape:pageshadow="2" inkscape:snap-global="false" inkscape:window-height="1699" inkscape:window-maximized="1" inkscape:window-width="2736" inkscape:window-x="-13" inkscape:window-y="-13" inkscape:zoom="2.7589994" pagecolor="#2f4f4f" showgrid="false" showguides="false" units="px"/>
      <g id="layer1" inkscape:groupmode="layer" inkscape:label="Layer 1">
        <path id="path877" class="cls-4" d="M285.5-584h0" inkscape:connector-curvature="0" inkscape:original-d="m 75.525645,58.875673 c -3.245506,1.622758 1.889982,-1.624566 0,0 0.753601,-1.324653 2.224325,-2.859842 0,0" inkscape:path-effect="#path-effect879"/>
        <path id="path22-74-5" class="cls-2" d="M88.7,109.7c24.8-8,52.5-6.8,76.6,3.2,7.5,3.1,14.7,7.1,20.7,12.4,3.2,2.8,6,5.9,8.5,9.4" inkscape:connector-curvature="0" inkscape:export-filename="C:\Users\neilm\Desktop\copulalogo.png" inkscape:export-xdpi="100.47107" inkscape:export-ydpi="100.47107" inkscape:original-d="m 9.7846174,275.61201 c 4.4678096,0.67112 5.5109096,-0.93228 7.8535796,0.3255 3.12029,1.67529 8.96218,-1.27652 2.1269,1.26988 -3.14885,1.17307 2.81845,0.41153 0.87421,0.95949" inkscape:path-effect="#path-effect345" sodipodi:nodetypes="cssc"/>
        <path id="path1094-3-7" class="cls-1" d="M92.9,108.4c-14.8,5.1-31.8,3.9-45.7-3.3-13.9-7.2-24.7-20.4-29-35.5-2-6.9-2.7-14.1-1.4-21.2,1.2-6.7,4.1-13.1,8.4-18.4" inkscape:connector-curvature="0" inkscape:export-filename="C:\Users\neilm\Desktop\copulalogo.png" inkscape:export-xdpi="100.47107" inkscape:export-ydpi="100.47107" inkscape:original-d="m 10.213477,275.48068 c 4.00094,-1.44583 -4.8401496,-1.33682 -7.6683096,-3.9831 -0.56854,-0.53197 -0.40228,-1.44725 -0.14706,-2.17031 0.0587,-0.1662 1.05621,-1.95785 0.85889,-1.88451" inkscape:path-effect="#path-effect343" sodipodi:nodetypes="cssc"/>
        <path id="path1125-0-1" class="cls-5" d="M80,93.9c-4.9,0-9.8-.7-14.4-2.2-8.2-2.6-15.7-7.4-20.9-14.2-6.9-9-9.3-21.4-6.3-32.4,1.4,0,2.8,0,4.2,0,10.5.4,20.9,4.7,28.3,12.2s11.6,18.1,10.8,28.6c-.2,2.7-.7,5.4-1.6,8h0Z" inkscape:connector-curvature="0" inkscape:export-filename="C:\Users\neilm\Desktop\copulalogo.png" inkscape:export-xdpi="100.47107" inkscape:export-ydpi="100.47107" inkscape:original-d="m 8.8931774,273.99536 c -0.14972,-0.0948 -1.32315,-0.16101 -1.47902,-0.22632 -0.64535,-0.27055 -1.55454,-0.94493 -2.14559,-1.4602 -1.0472,-0.91294 -0.21787,-2.02223 -0.65,-3.31849 0.14312,-10e-4 0.2842,-0.0348 0.42937,-0.003 1.39516,0.30602 3.81524,2.32295 4.00786,4.1865 0.0344,0.33269 -0.0772,0.56688 -0.16262,0.8215 z" inkscape:path-effect="#path-effect341" inkscape:transform-center-x="3.2664582" inkscape:transform-center-y="-2.3150703" sodipodi:nodetypes="cssccscc"/>
        <path id="path1125-5-2-8" class="cls-5" d="M157.8,129.9c-1.5,5.6-3.6,11-6.2,16.1-2.2,4.4-4.9,8.7-8.1,12.4s-7.2,6.9-11.7,8.9c-8.3,3.8-18.4,3.5-26.4-.9.6-12.9,7.7-25.2,18.4-32.3,9-5.9,20.5-8,30.9-5.2,1.1.3,2.1.6,3.1,1h0Z" inkscape:connector-curvature="0" inkscape:export-filename="C:\Users\neilm\Desktop\copulalogo.png" inkscape:export-xdpi="100.47107" inkscape:export-ydpi="100.47107" inkscape:original-d="m 16.872337,277.68954 c -0.0971,0.14822 -0.57218,1.496 -0.63995,1.65082 -0.28061,0.64104 -1.5107,1.60249 -2.03515,2.18541 -0.92921,1.03279 -1.40516,-0.50253 -2.70801,-0.0907 0.001,-0.14313 1.8552,-3.16878 1.88933,-3.31344 0.32779,-1.3902 1.3074,-0.37166 3.17374,-0.5351 0.33319,-0.0292 0.0668,0.0137 0.32002,0.10303 z" inkscape:path-effect="#path-effect339" inkscape:transform-center-x="2.2420383" inkscape:transform-center-y="3.1316862" sodipodi:nodetypes="cssccscc"/>
        <path id="path1125-5-9-25-4" class="cls-5" d="M164.9,91.7c-.4-1.8-.7-3.7-1-5.5-1.2-9.7-.1-19.9,4.7-28.5,3.3-5.8,8.2-10.7,14.1-14,5.9-3.2,12.7-4.8,19.3-4.4.4,1.3.8,2.7,1.1,4.1,2.5,12.1-1.3,25.3-9.6,34.5-7.2,8.1-17.8,13.2-28.6,13.8h0Z" inkscape:connector-curvature="0" inkscape:export-filename="C:\Users\neilm\Desktop\copulalogo.png" inkscape:export-xdpi="100.47107" inkscape:export-ydpi="100.47107" inkscape:original-d="m 17.592827,273.76971 c 0.0553,-0.16835 -0.1236,-0.40187 -0.0983,-0.56897 0.10461,-0.6919 0.1237,-2.21969 0.47886,-2.91876 0.62929,-1.23857 2.27653,-1.14471 3.42785,-1.88056 0.036,0.13852 0.10328,0.26706 0.10789,0.41561 0.0443,1.42764 0.7788,2.89667 -0.98115,3.53893 -0.3142,0.11466 -2.66733,1.43425 -2.93509,1.41373 z" inkscape:path-effect="#path-effect337" inkscape:transform-center-x="8.2985592" inkscape:transform-center-y="-8.0305246" sodipodi:nodetypes="cssccscc"/>
        <path id="path1094-7-3-2-8" class="cls-3" d="M89.3,178.7c4.9,5.5,11.3,9.5,18.4,11.5,7.1,2,14.7,1.9,21.7-.3,8.5-2.6,15.8-8.2,22.2-14.4,13.3-13.1,22.9-30,27.4-48.1" inkscape:connector-curvature="0" inkscape:export-filename="C:\Users\neilm\Desktop\copulalogo.png" inkscape:export-xdpi="100.47107" inkscape:export-ydpi="100.47107" inkscape:original-d="m 9.8391374,282.68904 c 2.7308196,0.73936 1.9425196,-1.01744 4.1098596,1.14875 0.52952,0.52924 2.0252,-0.75854 2.27312,-1.48034 1.23752,-3.6027 5.14884,-5.13113 2.81299,-4.93631" inkscape:path-effect="#path-effect335" sodipodi:nodetypes="cssc"/>
        <path id="path22-74-5-0" class="cls-2" d="M200,281.2c14.7,14.2,35.2,22.2,55.6,21.5,18.8-.6,37.1-8.4,51.4-20.7,10.7-9.2,19.1-21,24.5-34.1" inkscape:connector-curvature="0" inkscape:export-filename="C:\Users\neilm\Desktop\copulalogo.png" inkscape:export-xdpi="100.47107" inkscape:export-ydpi="100.47107" inkscape:original-d="m 21.194617,293.20698 c -4.46781,0.67112 8.04937,0.94983 5.7067,2.20761 -3.12029,1.67529 -1.56622,-4.67186 5.26906,-2.12546 3.14886,1.17307 0.56951,-4.04263 2.51375,-3.49467" inkscape:path-effect="#path-effect364" sodipodi:nodetypes="cssc"/>
        <path id="path1094-4-2-2" class="cls-2" d="M151.7,108.7c-8.6-13.3-11.5-30.3-7.7-45.7,3.8-15.4,14.2-29.1,28.1-36.9,6.2-3.5,13-5.8,20-6.8,3.2-.5,6.5-.7,9.8-.6" inkscape:connector-curvature="0" inkscape:export-filename="C:\Users\neilm\Desktop\copulalogo.png" inkscape:export-xdpi="100.47107" inkscape:export-ydpi="100.47107" inkscape:original-d="m 16.238857,275.50927 c 0.64697,-2.8715 -0.0109,-6.08112 2.08895,-8.46586 0.51302,-0.58263 1.28697,-0.75979 2.04738,-0.6991 0.17479,0.014 1.12455,0.11055 1.00328,-0.0611" inkscape:path-effect="#path-effect384" sodipodi:nodetypes="cssc"/>
        <path id="path22-74-5-8" class="cls-2" d="M203,149.2c10.8,11.1,17.9,25.7,19.9,41.1,3,22.5-4.9,45.8-19,63.6-10.8,13.6-25.1,24.4-41.1,31-16,6.6-33.8,9-51,7" inkscape:connector-curvature="0" inkscape:export-filename="C:\Users\neilm\Desktop\copulalogo.png" inkscape:export-xdpi="100.47107" inkscape:export-ydpi="100.47107" inkscape:original-d="m 21.502547,279.66662 c 4.46781,0.67112 -0.29795,2.95561 2.04472,4.21339 3.12029,1.67529 4.88998,3.97946 -1.9453,6.52586 -3.14885,1.17307 -7.50411,3.34731 -9.44835,3.89527" inkscape:path-effect="#path-effect1107" sodipodi:nodetypes="cssc"/>
        <path id="path22-74-5-0-4" class="cls-2" d="M291.1,111.5c-18-5.6-37.7-5.9-55.8-.8s-34.8,15.5-47.4,29.6c-13.9,15.7-22.6,35.9-24.3,56.8-1.9,22.9,4.8,46.4,18.4,65" inkscape:connector-curvature="0" inkscape:export-filename="C:\Users\neilm\Desktop\copulalogo.png" inkscape:export-xdpi="100.47107" inkscape:export-ydpi="100.47107" inkscape:original-d="m 30.538177,275.80042 c -4.46781,0.67112 -8.24239,1.69544 -10.58506,2.95322 -3.12029,1.67529 -9.32925,3.28321 -2.49397,5.82961 3.14886,1.17307 -0.0604,6.11471 1.88384,6.66267" inkscape:path-effect="#path-effect1126" sodipodi:nodetypes="cssc"/>
      </g>
    </g>
  </g>
</svg>